<svg xmlns="http://www.w3.org/2000/svg" viewBox="0 0 457 55"><path d="M425 22.9c0-6.1 5-11 11.2-11s11.2 4.9 11.2 11-5 11-11.2 11S425 29 425 22.9zm-9.1-.2c0 10.9 9.2 19.7 20.5 19.7S457 33.7 457 22.7 447.8 3 436.5 3s-20.6 8.8-20.6 19.7zm17.3-3.4l-2.9 9.8 9.7-2.9 2.8-9.7-9.6 2.8zM413.1 7.9s-3.7-4.7-12.7-4.7-12.7 7.1-12.7 12 3.2 10 10.4 11.7c7.1 1.7 6 3.9 5.5 5.2-.6 1.3-5.3 4.5-11.4-1.3l-6 6.8s4.6 4.9 14 4.9 13.3-5.6 13.3-13-5.8-9.6-11.2-11.4-5.8-4-3.9-5.7 7.8-.4 9.4 2.1l5.3-6.6z" /><path d="M363.5 27.4c0-4.8 3.7-7.5 6.9-7.5s3.4 1 3.4 1l-10.3 6.5zm7.2-15s-15.3-.1-15.3 15.1 15.9 15.1 15.9 15.1 6.1 0 11.4-4.4l-4.4-6.8s-5 5.5-12.5 1.3L384 21.3c-.1-.1-3.8-8.9-13.3-8.9zm-37.6 15c0-4.8 3.7-7.5 6.9-7.5s3.4 1 3.4 1l-10.3 6.5zm7.2-15S325 12.3 325 27.5s15.9 15.1 15.9 15.1 6.1 0 11.4-4.4l-4.4-6.8s-5 5.5-12.5 1.3l18.2-11.4c-.1-.1-3.8-8.9-13.3-8.9zm-38 30.1h9.1V26.6s-.1-4.9 4.9-4.9c1.6 0 2.7.5 3.5 1.2l6.5-6.5c-1.5-1.9-3.7-3.3-6.8-3.3 0 0-6.3-.5-8.6 4.4v-4.7l-8.6 1v28.7zm-24.4 0h9.6v-14h7.3l2.6-8.3h-9.9v-8.1h12.2L302 4h-24.2v38.5z" /><g><path d="M22.9 34.7l-2.2 7.8H1.2V4.7h8.1v30h13.6zM87.5 42c0 1.5-.3 2.9-.8 4.2-.5 1.3-1.3 2.6-2.4 3.8-1.1 1.2-2.7 2.1-4.7 2.8s-4.4 1.1-7.1 1.1c-1.9 0-3.8-.2-5.4-.7-1.7-.5-3.1-1.1-4.2-1.8s-1.9-1.3-2.4-1.7c-.5-.4-.9-.8-1.3-1.2l-.1-.1 5.3-5.2c.1.2.2.4.4.5s.5.5.9.9c.5.4 1 .7 1.6 1.1s1.3.6 2.3.8c1 .2 2 .4 3.1.4 1.9 0 3.6-.3 4.9-1 1.3-.7 2-1.8 2-3.4l.1-3.3c-1.9 1.7-4.2 2.5-6.9 2.5-3.9 0-7.2-1.4-9.9-4.1-2.8-2.7-4.1-6-4.1-9.9 0-3.9 1.4-7.2 4.1-9.9 2.8-2.7 6.1-4.1 9.9-4.1 3.1 0 5.7 1.1 7.7 3.3v-1.6l6.9-1.5V42zm-9.3-9.8c1.3-1.3 1.9-2.8 1.9-4.6 0-1.8-.6-3.3-1.9-4.6-1.3-1.3-2.8-1.9-4.6-1.9-1.8 0-3.3.6-4.6 1.9-1.3 1.3-1.9 2.8-1.9 4.6 0 1.8.6 3.3 1.9 4.6 1.3 1.3 2.8 1.9 4.6 1.9 1.8 0 3.3-.6 4.6-1.9zM100.8 11.3c-.8.8-1.9 1.3-3.1 1.3s-2.2-.4-3.1-1.3c-.8-.8-1.3-1.9-1.3-3.1s.4-2.2 1.3-3.1c.8-.8 1.9-1.3 3.1-1.3s2.2.4 3.1 1.3c.8.8 1.3 1.9 1.3 3.1s-.5 2.2-1.3 3.1zm-6.7 31.2V15.8l7.6-1.7v28.4h-7.6zM129.4 16.7c1.7 2.1 2.6 5.1 2.6 9.1v16.7h-7.6V26.3c0-3.7-1.7-5.5-5.2-5.5-1.1 0-2.1.4-2.9 1.1-.8.7-1.3 1.8-1.3 3.2v17.4h-7.6V15.3l7.3-1.6v3.6c1.7-2.4 4.1-3.7 7.2-3.7 3.3 0 5.8 1 7.5 3.1zM189.5 13.6l-8.1 28.9h-7.3l-3.6-16.1-3.6 16.1h-7.3l-8.1-28.9h7.7l3.9 17.7 4.2-17.7h6.6l4.1 17.7 3.9-17.7h7.6zM200.2 11.3c-.8.8-1.9 1.3-3.1 1.3-1.2 0-2.2-.4-3.1-1.3-.8-.8-1.3-1.9-1.3-3.1s.4-2.2 1.3-3.1c.8-.8 1.9-1.3 3.1-1.3 1.2 0 2.2.4 3.1 1.3.8.8 1.3 1.9 1.3 3.1s-.5 2.2-1.3 3.1zm-6.8 31.2V15.8l7.6-1.7v28.4h-7.6zM220 34.5c1.4.7 3.1.8 5.1.3l-2.1 7.7c-1.8 0-3.3-.2-4.8-.5-1.4-.3-2.5-.7-3.4-1.2-.9-.5-1.6-1.1-2.2-1.9-.6-.8-1.1-1.5-1.4-2.1s-.5-1.4-.7-2.3c-.2-.9-.2-1.6-.2-2V20.9h-5.5l1.9-6.8h3.5V7.4l7.6-1.1v7.8h5.1v6.8h-5.1v9.5c0 2 .8 3.4 2.2 4.1zM254.2 25.8v16.7h-7.7V26.3c0-3.7-1.7-5.5-5.1-5.5-1.8 0-3 .6-3.8 1.9-.8 1.3-1.2 2.9-1.2 4.8v15h-7.6V5l7.6-1.7v14c1.9-2.5 4.5-3.7 7.7-3.7 6.7 0 10.1 4.1 10.1 12.2z"/></g><path d="M32 28.5c0-4.8 3.9-8.6 8.7-8.6s8.7 3.9 8.7 8.6-3.9 8.6-8.7 8.6-8.7-3.8-8.7-8.6zm-7.1-.1c0 8.5 7.2 15.4 16 15.4s16-6.9 16-15.4S49.8 13 41 13s-16.1 6.9-16.1 15.4zm13.5-2.7l-2.3 7.6 7.6-2.3 2.2-7.6-7.5 2.3z"/></svg>